<svg width="94" height="29" viewBox="0 0 94 29" fill="none" xmlns="http://www.w3.org/2000/svg">
<path d="M84.4294 28.6328C78.8466 28.6328 74.8969 24.2637 74.8969 18.1309C74.8969 11.998 78.8466 7.62891 84.4294 7.62891C90.0122 7.62891 94 11.998 94 18.1309C94 24.2637 90.0122 28.6328 84.4294 28.6328ZM84.4294 24.5042C87.5816 24.5042 89.8603 21.8587 89.8603 18.1309C89.8603 14.3229 87.5816 11.6373 84.4294 11.6373C81.2772 11.6373 79.0365 14.3229 79.0365 18.1309C79.0365 21.8587 81.2772 24.5042 84.4294 24.5042Z" fill="#15002E"/>
<path d="M69.0963 8.10962H73.0841V28.1515H69.0963V8.10962ZM71.1092 5.82484C69.5521 5.82484 68.4507 4.58225 68.4507 2.89873C68.4507 1.21521 69.5521 0.0126953 71.1092 0.0126953C72.6663 0.0126953 73.7677 1.21521 73.7677 2.89873C73.7677 4.58225 72.6663 5.82484 71.1092 5.82484Z" fill="#15002E"/>
<path d="M64.1679 28.4725C62.5728 28.4725 61.3955 27.1898 61.3955 25.4662C61.3955 23.7026 62.5728 22.46 64.1679 22.46C65.801 22.46 66.9403 23.7026 66.9403 25.4662C66.9403 27.1898 65.801 28.4725 64.1679 28.4725Z" fill="#15002E"/>
<path d="M55.5201 28.152V0.89502H59.5078V28.152H55.5201Z" fill="#15002E"/>
<path d="M44.1826 28.6328C38.5997 28.6328 34.65 24.2637 34.65 18.1309C34.65 11.998 38.5997 7.62891 44.1826 7.62891C49.7654 7.62891 53.7531 11.998 53.7531 18.1309C53.7531 24.2637 49.7654 28.6328 44.1826 28.6328ZM44.1826 24.5042C47.3348 24.5042 49.6135 21.8587 49.6135 18.1309C49.6135 14.3229 47.3348 11.6373 44.1826 11.6373C41.0304 11.6373 38.7896 14.3229 38.7896 18.1309C38.7896 21.8587 41.0304 24.5042 44.1826 24.5042Z" fill="#15002E"/>
<path d="M16.7463 28.1518L23.8862 17.9304L17.0121 8.10986H22.1012L26.2409 14.5634L30.1526 8.10986H35.2038L28.5955 17.9304L35.7355 28.1518H30.6464L26.2029 21.2173L21.9873 28.1518H16.7463Z" fill="#15002E"/>
<path d="M6.68018 28.6328C2.95829 28.6328 0.451721 26.2679 0.451721 22.7806C0.451721 20.095 2.4266 17.8503 5.42689 17.249L11.4275 16.0064C11.9971 15.9262 12.3769 15.4853 12.3769 14.9642C12.3769 12.92 10.9717 11.4369 8.99686 11.4369C6.94602 11.4369 5.35093 12.9601 5.19902 15.2448L1.09735 14.2026C1.70501 10.3546 4.89519 7.62891 8.80696 7.62891C13.2125 7.62891 16.3647 10.7554 16.3647 15.0845V24.1434L16.4406 28.1518H13.2884L12.6048 25.4261C11.4275 27.3902 9.26271 28.6328 6.68018 28.6328ZM4.74328 22.2194C4.74328 23.6624 5.84465 24.6244 7.66761 24.6244C10.3261 24.6244 12.3769 22.5802 12.3769 19.5739V18.6519C11.9971 18.7321 11.5794 18.8524 11.1616 18.9325L7.02198 19.7342C5.61678 20.0148 4.74328 20.9768 4.74328 22.2194Z" fill="#15002E"/>
</svg>
