<svg width="21" height="20" viewBox="0 0 21 20" fill="none" xmlns="http://www.w3.org/2000/svg">
<path fill-rule="evenodd" clip-rule="evenodd" d="M11.2192 0.82617C14.4076 1.37085 18.0235 2.20063 19.4621 4.92428C20.9473 7.73621 19.3923 10.8066 17.9027 13.4798C16.3663 16.2368 14.5246 19.1069 11.2059 19.7397C7.69261 20.4096 3.60387 19.3188 1.26432 16.6521C-0.826165 14.2692 0.463144 11.0361 1.00317 8.11007C1.41792 5.86288 1.99606 3.63994 3.9189 2.26898C5.96448 0.81051 8.59531 0.377918 11.2192 0.82617Z" fill="#FFFAF4"/>
<path d="M9.07945 15.662C7.85518 15.662 6.54368 15.3768 6.03637 14.2769C5.83632 13.8428 5.53506 12.9234 5.77191 11.6439C5.77631 11.6211 6.31803 9.25661 7.0638 8.7533C7.13034 8.70486 7.20609 8.67054 7.28638 8.65244C7.36667 8.63435 7.44982 8.63286 7.5307 8.64807C9.80361 9.11018 10.5918 8.67408 10.5994 8.66968C10.6351 8.64636 10.6752 8.63043 10.7172 8.62281C10.7591 8.6152 10.8022 8.61606 10.8439 8.62533C10.8855 8.63461 10.9249 8.65213 10.9597 8.67684C10.9945 8.70156 11.0239 8.73298 11.0464 8.76926C11.0689 8.80554 11.0839 8.84595 11.0905 8.8881C11.0971 8.93026 11.0952 8.97331 11.0849 9.01473C11.0747 9.05614 11.0562 9.09509 11.0307 9.12928C11.0052 9.16347 10.9731 9.1922 10.9363 9.2138C10.8394 9.27381 9.92164 9.78273 7.42788 9.28021C7.37747 9.31142 7.15062 9.49466 6.81094 10.4029C6.64469 10.846 6.50796 11.2996 6.40165 11.7608C6.19681 12.8662 6.44886 13.6436 6.6173 14.0089C6.84255 14.4966 7.48509 15.0691 9.26789 15.0195C10.0023 14.9922 10.732 14.8898 11.4456 14.7138C11.4863 14.7027 11.5288 14.6996 11.5707 14.705C11.6126 14.7103 11.653 14.7239 11.6897 14.7449C11.7263 14.766 11.7584 14.794 11.7841 14.8275C11.8098 14.861 11.8287 14.8993 11.8396 14.9401C11.8504 14.9809 11.8531 15.0234 11.8475 15.0653C11.8418 15.1071 11.828 15.1475 11.8067 15.1839C11.7854 15.2204 11.7571 15.2523 11.7234 15.2778C11.6897 15.3032 11.6513 15.3218 11.6104 15.3324C11.5164 15.3564 10.3445 15.662 9.07945 15.662Z" fill="#261704"/>
<path d="M10.4185 17.8628H10.4077C10.3229 17.86 10.2426 17.8236 10.1846 17.7616C10.1266 17.6996 10.0956 17.6172 10.0984 17.5323L10.1753 15.2154C10.1767 15.1734 10.1863 15.132 10.2037 15.0937C10.2211 15.0554 10.2458 15.0209 10.2765 14.9922C10.3072 14.9635 10.3433 14.941 10.3826 14.9262C10.422 14.9114 10.4639 14.9045 10.5059 14.9059C10.548 14.9073 10.5893 14.917 10.6276 14.9344C10.6659 14.9517 10.7004 14.9765 10.7292 15.0072C10.7579 15.0379 10.7803 15.074 10.7951 15.1133C10.8099 15.1527 10.8168 15.1946 10.8154 15.2366L10.7386 17.5531C10.7359 17.6362 10.701 17.715 10.6412 17.7728C10.5815 17.8306 10.5016 17.8628 10.4185 17.8628Z" fill="#261704"/>
<path d="M12.8287 17.8829C12.8191 17.8829 12.8099 17.8829 12.8003 17.8829C12.7584 17.8792 12.7176 17.8673 12.6804 17.8479C12.6431 17.8285 12.61 17.8019 12.583 17.7697C12.556 17.7375 12.5356 17.7002 12.5229 17.6601C12.5103 17.6201 12.5057 17.5779 12.5094 17.536L12.8295 13.8952C12.8342 13.8351 12.8559 13.7775 12.8919 13.7292C12.9279 13.6808 12.9769 13.6437 13.0331 13.6219C13.4388 13.4671 14.0733 13.107 14.147 12.8253C14.2642 12.3756 14.1734 12.172 13.7869 12.018C13.6052 11.9451 13.5336 11.9779 13.4344 12.022C13.3236 12.0716 12.9867 12.222 12.7294 11.8099C12.3718 11.2358 12.1693 9.5474 12.1473 9.35656C12.1425 9.31479 12.146 9.27248 12.1576 9.23206C12.1692 9.19164 12.1886 9.1539 12.2147 9.12098C12.2409 9.08807 12.2733 9.06062 12.31 9.04022C12.3468 9.01982 12.3872 9.00686 12.429 9.00208C12.4707 8.9973 12.513 9.00079 12.5535 9.01236C12.5939 9.02392 12.6316 9.04334 12.6645 9.06949C12.6975 9.09565 12.7249 9.12803 12.7453 9.16479C12.7657 9.20155 12.7787 9.24197 12.7835 9.28374C12.8559 9.91268 13.0391 11.0041 13.2384 11.409C13.3952 11.3446 13.6496 11.2734 14.0245 11.4234C14.7143 11.6995 14.9635 12.2236 14.7655 12.9866C14.6151 13.5631 13.8389 13.9708 13.4472 14.1428L13.1443 17.59C13.1376 17.6693 13.1015 17.7433 13.0431 17.7975C12.9847 17.8516 12.9083 17.8821 12.8287 17.8829Z" fill="#261704"/>
<path d="M14.0149 12.0539C13.9941 11.9399 13.9325 11.3085 14.7623 10.0635C15.5921 8.81839 15.3088 8.08383 14.9491 7.43568L14.9419 7.42328C14.7575 7.0912 14.505 6.6363 13.5652 6.1666C12.445 5.60647 11.7452 5.39883 11.2847 5.262C11.096 5.21192 10.9112 5.14814 10.7318 5.07115C10.657 5.57887 10.5654 6.14059 10.1717 6.28702C10.0304 6.33904 9.80639 6.35304 9.53993 6.12219C9.25987 5.87853 9.15704 5.79611 9.05982 5.7165C9.01981 5.68329 8.9798 5.65088 8.92779 5.60847C8.92809 5.77631 8.89093 5.9421 8.81902 6.09375C8.7471 6.2454 8.64225 6.37909 8.5121 6.48507C8.10201 6.83035 7.66111 6.6079 7.43506 6.44506C7.1902 6.26822 6.95495 6.00776 6.7085 5.7249C6.7341 5.95695 6.77571 6.21821 6.80012 6.36984C6.88013 6.87316 6.89854 7.00999 6.83172 7.14362C6.57807 7.65133 6.03474 7.73415 5.53863 7.70374C6.23159 8.10343 7.15179 8.48952 7.55188 8.64155C7.62943 8.67301 7.69156 8.73359 7.72498 8.81031C7.7584 8.88703 7.76045 8.97378 7.73068 9.05199C7.70092 9.1302 7.6417 9.19364 7.56573 9.22872C7.48976 9.26381 7.40307 9.26774 7.32423 9.23968C7.23821 9.20728 5.20376 8.4291 4.44599 7.71334C4.33517 7.60852 4.10431 7.39047 4.23594 7.13081C4.36757 6.87115 4.64563 6.91957 4.99611 6.98398C5.3862 7.0552 6.02554 7.17202 6.22999 6.90396C6.22159 6.81034 6.18998 6.6239 6.16757 6.47027C6.01834 5.52485 5.95153 4.97993 6.31961 4.80869C6.63168 4.66226 6.89974 4.96873 6.98776 5.06915C7.02777 5.11476 7.06778 5.16064 7.10778 5.20678C7.34784 5.48444 7.59829 5.77171 7.81114 5.92694C8.01119 6.07218 8.0636 6.02857 8.10161 5.99696C8.24444 5.87693 8.37047 5.7097 8.20243 5.12156C8.15722 4.96153 8.0884 4.72147 8.31165 4.58024C8.54411 4.43301 8.75175 4.61465 8.91859 4.76068C9.24946 5.04915 9.35229 5.13157 9.45951 5.21999C9.56153 5.3028 9.66716 5.38842 9.95442 5.63728C10.0248 5.47164 10.0776 5.11036 10.1025 4.94072C10.1609 4.54503 10.1993 4.28338 10.4625 4.22056C10.5347 4.20354 10.6103 4.2092 10.6791 4.23676C10.748 4.26433 10.8066 4.31247 10.847 4.3746C10.9294 4.48782 11.0703 4.53463 11.4656 4.65146C11.9493 4.79469 12.6802 5.01154 13.8521 5.59687C14.9687 6.157 15.2896 6.73352 15.5021 7.11721L15.5089 7.13001C15.977 7.9702 16.275 8.95402 15.2956 10.4235C14.6043 11.4602 14.6463 11.9511 14.6471 11.9559C14.6471 11.9479 14.6451 11.9439 14.6451 11.9439L14.0149 12.0539Z" fill="#261704"/>
<path d="M7.38665 11.5214C7.329 11.5215 7.27241 11.5059 7.22301 11.4762C6.85693 11.2573 6.40003 11.3837 6.39523 11.3849C6.31414 11.4077 6.22736 11.3976 6.15368 11.3568C6.08 11.316 6.02537 11.2478 6.00163 11.167C5.97789 11.0862 5.98695 10.9993 6.02685 10.9251C6.06675 10.851 6.13428 10.7955 6.21479 10.7708C6.24439 10.762 6.94015 10.5616 7.55109 10.9264C7.61129 10.9624 7.65803 11.0171 7.68413 11.0821C7.71024 11.1472 7.71426 11.219 7.69559 11.2866C7.67691 11.3541 7.63657 11.4137 7.58076 11.4561C7.52495 11.4985 7.45675 11.5215 7.38665 11.5214Z" fill="#261704"/>
<path d="M8.21921 14.1418C7.98106 14.1393 7.74483 14.0987 7.51945 14.0217C7.44729 13.988 7.39031 13.9285 7.35964 13.855C7.32898 13.7815 7.32685 13.6991 7.35366 13.6241C7.38047 13.5491 7.43429 13.4868 7.50461 13.4493C7.57493 13.4119 7.65669 13.402 7.7339 13.4216C7.89564 13.4744 8.06468 13.5014 8.23481 13.5016C8.58209 13.4976 8.67931 13.3468 8.72532 13.216C8.75461 13.1375 8.81346 13.0737 8.88927 13.0381C8.96507 13.0025 9.05179 12.9981 9.13083 13.0258C9.20987 13.0534 9.27493 13.1109 9.31206 13.1859C9.3492 13.261 9.35544 13.3476 9.32946 13.4272C9.2867 13.5564 9.21831 13.6756 9.12839 13.7778C9.03847 13.88 8.92887 13.9629 8.80614 14.0217C8.62178 14.1047 8.42132 14.1456 8.21921 14.1418Z" fill="#261704"/>
<path d="M8.38683 11.4775C8.36641 11.4775 8.34604 11.4755 8.32601 11.4715C8.24268 11.4555 8.1691 11.4071 8.12146 11.3369C8.07382 11.2666 8.05601 11.1804 8.07196 11.097C8.14037 10.7409 8.35562 9.90235 8.87894 9.80953C9.1662 9.75872 9.42946 9.92955 9.66191 10.316C9.70563 10.3889 9.7186 10.4762 9.69796 10.5587C9.67733 10.6411 9.62479 10.712 9.55189 10.7557C9.47899 10.7995 9.39171 10.8124 9.30925 10.7918C9.22679 10.7712 9.15591 10.7186 9.11219 10.6457C9.07547 10.5803 9.03057 10.5198 8.97856 10.4657C8.89094 10.5741 8.76371 10.8874 8.6985 11.2178C8.68454 11.2905 8.64587 11.356 8.58905 11.4034C8.53223 11.4507 8.46078 11.4769 8.38683 11.4775Z" fill="#261704"/>
<path d="M7.58707 12.3214C7.58707 12.5423 7.44784 12.8015 7.22699 12.8015C7.00615 12.8015 6.7869 12.5423 6.7869 12.3214C6.7869 12.1006 7.00615 11.8413 7.22699 11.8413C7.44784 11.8413 7.58707 12.1014 7.58707 12.3214Z" fill="#261704"/>
<path d="M9.38752 11.9616C9.38752 12.1824 9.24829 12.4417 9.02744 12.4417C8.80659 12.4417 8.58734 12.1824 8.58734 11.9616C8.58734 11.7407 8.80659 11.4814 9.02744 11.4814C9.24829 11.4814 9.38752 11.7415 9.38752 11.9616Z" fill="#261704"/>
<path d="M10.3156 19.5964C6.36876 19.5964 4.2771 18.0946 3.21886 16.835C1.84015 15.1958 1.26722 12.9079 1.51608 10.0342C1.74653 7.36199 2.5111 5.25852 3.78819 3.77795C5.14849 2.20208 7.03531 1.40332 9.39544 1.40332C10.977 1.40332 12.5277 1.67448 13.8812 2.18822C15.43 2.7756 16.6419 3.63977 17.482 4.75605C18.6571 6.31849 19.0308 8.27468 18.5919 10.57L18.2774 10.4999L18.5907 10.57C18.0678 13.3068 17.1748 15.4592 15.9365 16.9675C14.5042 18.7119 12.6134 19.5964 10.3156 19.5964ZM9.39544 2.09639C7.21975 2.09639 5.49017 2.82152 4.25589 4.25141C3.07803 5.61545 2.37027 7.58291 2.15222 10.0992C1.92097 12.7701 2.43868 14.8796 3.69096 16.3684C4.66358 17.5246 6.60242 18.9033 10.3156 18.9033C12.4225 18.9033 14.1525 18.0972 15.458 16.5071C16.6211 15.0906 17.464 13.046 17.9638 10.4297C18.3618 8.35048 18.0322 6.58662 16.9843 5.19355C16.2206 4.1782 15.1039 3.3868 13.6692 2.84187C12.3833 2.35629 10.9058 2.09639 9.39544 2.09639Z" fill="#261704"/>
</svg>
