<svg width="48" height="48" viewBox="0 0 48 48" fill="none" xmlns="http://www.w3.org/2000/svg">
<path d="M42 9H6C5.60218 9 5.22064 9.15804 4.93934 9.43934C4.65804 9.72064 4.5 10.1022 4.5 10.5V36C4.5 36.7956 4.81607 37.5587 5.37868 38.1213C5.94129 38.6839 6.70435 39 7.5 39H40.5C41.2957 39 42.0587 38.6839 42.6213 38.1213C43.1839 37.5587 43.5 36.7956 43.5 36V10.5C43.5 10.1022 43.342 9.72064 43.0607 9.43934C42.7794 9.15804 42.3978 9 42 9ZM24 24.9656L9.85687 12H38.1431L24 24.9656ZM18.5081 24L7.5 34.0894V13.9106L18.5081 24ZM20.7281 26.0344L22.9781 28.1062C23.2549 28.3603 23.6168 28.5012 23.9925 28.5012C24.3682 28.5012 24.7301 28.3603 25.0069 28.1062L27.2569 26.0344L38.1319 36H9.85687L20.7281 26.0344ZM29.4919 24L40.5 13.9088V34.0913L29.4919 24Z" fill="#15002E"/>
</svg>
05 30.9451 10.605 22.9051C10.571 20.817 11.3448 18.7964 12.765 17.2651C12.1222 15.4564 12.1973 13.4701 12.975 11.7151C12.975 11.7151 14.73 11.1451 18.75 13.8601C22.1872 12.9225 25.8128 12.9225 29.25 13.8601C33.255 11.1451 35.01 11.7151 35.01 11.7151C35.7876 13.4701 35.8628 15.4564 35.22 17.2651C36.6402 18.7964 37.414 20.817 37.38 22.9051C37.38 30.9751 32.475 32.7451 27.795 33.2701C28.2963 33.7783 28.6829 34.388 28.9287 35.0581C29.1745 35.7283 29.2739 36.4433 29.22 37.1551V42.9151C29.22 43.6051 29.595 44.1301 30.72 43.9201C35.4554 42.3399 39.473 39.1244 42.0523 34.8503C44.6316 30.5762 45.604 25.523 44.795 20.5969C43.986 15.6708 41.4486 11.194 37.6378 7.96928C33.827 4.74457 28.9921 2.98288 24 3.00013Z" fill="#15002E"/>
</svg>
