<svg width="57" height="68" viewBox="0 0 57 68" fill="none" xmlns="http://www.w3.org/2000/svg">
<path d="M7.78993 28.211C7.89067 28.3078 8.42942 28.3738 8.87139 28.3434C8.99662 28.3348 9.34183 28.1346 9.63869 27.8984C9.93545 27.6622 10.1991 27.4689 10.2248 27.4689C10.2504 27.4689 10.2498 27.6158 10.2235 27.7952C10.1667 28.1817 10.4398 28.5425 10.789 28.5425C11.6602 28.5425 12.8729 27.7845 13.0994 27.0984C13.2686 26.5861 13.0783 25.9502 12.6182 25.4904C12.3202 25.1925 12.0947 25.0901 11.4143 24.9434C9.45697 24.5215 7.614 23.7471 6.32181 22.8037C5.85309 22.4614 5.82291 22.4086 5.77651 21.8483C5.71862 21.1507 5.56148 20.9201 5.14421 20.9201C4.8481 20.9201 4.751 20.9863 4.47819 21.3741C4.35876 21.5439 4.29786 21.5217 3.76535 21.1136C2.69054 20.2902 2.03945 19.9538 1.52036 19.9538C0.633731 19.9538 -0.0058667 20.5959 4.05833e-05 21.4802C0.00584047 22.3482 0.693663 23.148 2.44115 24.3186C3.20104 24.8276 3.32724 24.9552 3.32724 25.2147C3.32724 25.4209 3.4326 25.606 3.65772 25.7953C4.05727 26.1315 4.43169 26.1502 4.73274 25.8493C4.92908 25.6531 4.99524 25.6414 5.26902 25.7547C5.55762 25.8742 5.5762 25.9153 5.51465 26.3001C5.43657 26.7881 5.57287 27.0013 6.10452 27.2234C6.3029 27.3064 6.4479 27.3863 6.42674 27.4011C6.68451 27.6432 7.44294 28.0419 7.78993 28.211Z" fill="#15002E"/>
<path fill-rule="evenodd" clip-rule="evenodd" d="M5.08611 9.18402C5.30317 8.61588 5.63796 8.28307 6.19013 8.08628C6.22263 8.0747 6.25278 8.06386 6.28086 8.05377C6.47903 7.98258 6.5745 7.94828 6.67076 7.94587C6.76026 7.94363 6.85044 7.96895 7.02445 8.01782L7.02471 8.01789C7.0511 8.0253 7.07941 8.03325 7.10994 8.04173C7.59144 8.17539 8.10849 8.5913 8.33318 9.02567C8.42394 9.20109 8.6395 10.1112 8.81232 11.0481C9.16321 12.9503 9.27481 13.3259 9.93642 14.831C10.5226 16.1645 11.2077 17.2779 12.2046 18.5176C13.1679 19.7155 13.3144 19.987 13.3153 20.5765C13.317 21.776 12.2019 22.5268 10.416 22.5286C9.68219 22.5293 8.91231 22.3686 8.91231 22.2149C8.91231 22.165 9.15397 21.9399 9.44934 21.7147C9.7447 21.4896 9.98636 21.2698 9.98636 21.2265C9.98636 21.0509 9.7795 21.0399 9.46148 21.1985C8.85968 21.4986 8.06864 21.1331 7.76909 20.4164C7.58704 19.9811 7.71313 19.6673 8.10989 19.5677C8.12601 19.5636 8.1413 19.5599 8.15576 19.5563C8.26436 19.5296 8.32646 19.5143 8.34789 19.4762C8.37651 19.4253 8.33258 19.3336 8.22998 19.1195C8.21977 19.0982 8.20899 19.0757 8.19764 19.0519C8.02364 18.6872 8.00936 18.6808 7.50283 18.7408C6.85078 18.818 6.55133 18.6371 6.22869 17.9708C6.00539 17.5098 6.00152 17.4634 6.16521 17.2137C6.26112 17.0675 6.44038 16.9478 6.56347 16.9478C6.74778 16.9478 6.7757 16.901 6.72125 16.6841C6.54499 15.982 6.4596 15.8742 6.07982 15.8742C5.79595 15.8742 5.63903 15.7907 5.38931 15.5064C5.21166 15.3041 5.03423 14.993 4.99513 14.8149C4.92768 14.5078 5.07193 14.051 5.23744 14.0475C5.27965 14.0465 5.376 14.0067 5.45139 13.9588C5.55966 13.8901 5.53066 13.6585 5.31359 12.86C4.94229 11.4946 4.8394 9.83 5.08611 9.18402ZM39.9959 20.7268C40.1999 20.3349 40.5752 19.9988 41.0272 19.8028C41.5378 19.5815 42.0316 19.5922 42.5076 19.8351C42.9998 20.0862 43.2258 20.33 43.439 20.84C43.9043 21.9533 43.2288 23.1396 41.9623 23.4333C41.3087 23.5849 40.3495 23.0868 40.0023 22.4157C39.8026 22.0297 39.7992 21.1048 39.9959 20.7268ZM23.2546 27.2659C22.5862 26.3234 22.9485 24.9264 23.983 24.4568C25.2422 23.8854 26.5313 24.5657 26.8077 25.9478C26.9432 26.6248 26.4201 27.5146 25.6583 27.9031C24.7987 28.3414 23.8364 28.0864 23.2546 27.2659ZM35.1377 28.6538C37.1535 28.1225 39.1876 27.1728 40.3508 26.2198C40.7374 25.903 41.0937 25.6438 41.1425 25.6438C41.397 25.6438 41.7786 25.9221 41.8888 26.1883C42.0891 26.6715 41.848 27.1918 41.0678 27.9603C39.4849 29.5194 36.5584 30.7863 33.498 31.2373C32.3187 31.4113 29.7088 31.4099 28.6212 31.2349C27.3254 31.0264 26.9564 30.7688 26.9564 30.0731C26.9564 29.393 27.0115 29.3772 29.4889 29.347C31.8261 29.3184 33.3033 29.1371 35.1377 28.6538Z" fill="#15002E"/>
<path d="M51.2022 38.0658L38.8637 43.9097V58.0216L51.3991 51.6396L51.2022 38.0658Z" fill="#15002E"/>
<path fill-rule="evenodd" clip-rule="evenodd" d="M38.8637 43.9097V58.0216L51.3991 51.6396L51.2022 38.0658L38.8637 43.9097Z" fill="#15002E"/>
<path fill-rule="evenodd" clip-rule="evenodd" d="M35.8736 0.757219C35.9986 0.552164 36.2823 0.314902 36.5446 0.195948C37.1316 -0.0705163 37.415 -0.0665444 37.9988 0.216024C38.5352 0.47551 39.0241 1.08896 39.3765 1.9445C39.559 2.38757 39.6711 2.51887 39.9225 2.58393C40.5167 2.73788 40.6847 3.62552 40.2094 4.10059C39.9401 4.36984 39.9344 4.40087 40.0586 4.91866C40.1724 5.39243 40.2115 5.44429 40.3853 5.35131C40.6697 5.19919 40.7847 5.21873 41.0265 5.46039C41.1708 5.60468 41.2413 5.81822 41.2413 6.11163C41.2413 6.66142 41.1051 6.91725 40.701 7.12606C40.4192 7.27175 40.382 7.34711 40.382 7.77258V8.2543L40.79 8.18902C41.2922 8.10882 41.503 8.31334 41.4874 8.86602C41.4735 9.3529 41.1579 9.7746 40.7231 9.88722C40.4076 9.96903 40.382 10.0096 40.382 10.4301C40.382 10.7983 40.428 10.9052 40.6237 10.9919C40.8689 11.1006 40.9009 11.2401 40.7726 11.6423C40.7145 11.8245 40.8231 11.9636 41.3598 12.3938C41.7219 12.6842 42.0442 12.9218 42.076 12.9218C42.1876 12.9218 42.5379 11.7281 42.8016 10.4487C42.9762 9.60133 43.0997 8.52731 43.1601 7.33165C43.2741 5.07057 43.409 4.7442 44.4005 4.33012C44.9693 4.09253 45.5189 4.20472 46.062 4.66937C46.8962 5.38309 47.0236 6.67591 46.5501 9.62054C46.4893 9.99823 46.5064 10.0768 46.649 10.0768C46.7439 10.0768 46.902 10.1997 47.0006 10.35C47.1496 10.5775 47.1594 10.6907 47.0593 11.0249C46.9061 11.5364 46.5664 11.9019 46.2445 11.9019C45.9246 11.9019 45.7582 12.1045 45.6794 12.5902C45.6219 12.9438 45.6382 12.9755 45.8779 12.9755C46.3936 12.9755 46.5471 13.447 46.2305 14.0591C46.0336 14.4396 45.6157 14.6244 45.1498 14.537C44.8505 14.481 44.7985 14.5102 44.677 14.8036C44.5467 15.1181 44.5584 15.1497 44.9315 15.4913C45.3478 15.8725 45.3864 15.984 45.2137 16.3065C45.1281 16.4666 45.1761 16.6259 45.4385 17.0521L45.7722 17.5943L46.1889 17.2644C46.7012 16.8588 47.703 15.7666 48.138 15.1396C48.4782 14.6491 48.5056 14.4923 48.3798 13.7549C48.3269 13.4454 48.3451 13.2478 48.4366 13.1376C48.6108 12.9277 49.1276 12.9292 49.3386 13.1401C49.4865 13.2878 49.535 13.2469 49.8167 12.7375C50.758 11.0353 51.1032 10.703 51.9307 10.703C53.2409 10.703 53.7753 12.0822 53.0549 13.6044C52.8772 13.9797 52.4647 14.6746 52.1382 15.1483C51.5737 15.9675 51.5535 16.0197 51.7264 16.2107C52.0148 16.5293 51.7677 17.1952 51.2289 17.5517C50.8587 17.7967 50.7665 17.8159 50.4658 17.7111C50.0029 17.5497 49.9937 17.5522 49.8464 17.8754C49.7336 18.1228 49.7477 18.1913 49.9567 18.4138C50.2694 18.7465 50.1402 19.159 49.6301 19.4569L49.2666 19.6691L48.7964 19.4197C48.5378 19.2826 48.2948 19.2018 48.2564 19.2401C48.218 19.2784 48.24 19.4837 48.3053 19.6963C48.3766 19.9286 48.3874 20.1787 48.3323 20.3236C48.2335 20.5835 47.6721 20.8716 47.4389 20.7822C47.3291 20.7401 47.3456 20.9185 47.5096 21.5483C47.6272 22 47.7379 22.3884 47.7556 22.4116C47.8127 22.4862 49.1172 21.9739 49.7263 21.6375C50.8762 21.0026 50.9098 20.9664 50.8846 20.3879C50.8713 20.0822 50.9209 19.799 51.0055 19.6971C51.1881 19.4772 51.8054 19.473 51.986 19.6905C52.0619 19.7818 52.1525 19.8181 52.1873 19.771C52.5253 19.3139 53.6309 18.4489 54.0066 18.3477C54.8943 18.1088 55.741 18.7846 55.741 19.7319C55.741 20.4934 55.274 21.1285 53.7003 22.5072C52.6135 23.4594 52.4095 23.5567 51.9726 23.3309C51.5294 23.1018 51.4274 23.2069 51.5075 23.8107C51.5737 24.3086 51.5648 24.3303 51.2022 24.5543C50.7145 24.8555 50.4216 24.8456 50.0924 24.5166C49.6716 24.0959 49.34 24.1729 49.521 24.6492C49.659 25.0117 49.5652 25.2628 49.2359 25.4128C48.8644 25.582 48.5428 25.5679 48.3273 25.373C48.1599 25.2216 48.1421 25.2671 48.0859 25.9903C48.0526 26.4197 47.9899 26.8611 47.9467 26.971C47.9467 28.0327 47.6553 28.9974 47.5096 29.347L49.0615 30.1308L52.5351 31.8864C55.4434 33.3563 56.0481 33.7014 56.2507 34.0069L56.4928 34.3717V44.5674V55.1824L36.5786 65.8382C32.1614 67.7243 27.4379 68.2453 22.4432 67.3974C17.4562 66.5508 12.4891 63.9112 9.05108 60.2807C5.66674 56.7069 3.47986 52.046 2.77324 46.9009C2.69097 46.3021 2.63319 44.8393 2.63319 43.358C2.63319 41.8768 2.69097 40.4139 2.77324 39.8152C3.08408 37.5515 3.81668 34.8676 4.62426 33.0331L4.65821 32.956C4.9811 32.2228 5.06201 32.0391 5.01301 31.9928C4.99663 31.9773 4.96572 31.9772 4.92448 31.9771C4.92025 31.9771 4.91591 31.9771 4.91147 31.977C4.66701 31.9752 2.42074 30.8374 2.06136 30.5333C1.58577 30.1309 1.39395 29.7258 1.39395 29.1242C1.39395 28.4925 1.69511 27.9838 2.21484 27.7372C2.73651 27.4898 3.23594 27.5814 4.31096 28.1217L5.173 28.5549C5.44481 28.6915 5.90727 28.8998 6.10452 28.9869C6.31851 29.0511 6.59572 29.1646 6.92018 29.2976C7.68092 29.6092 8.70139 30.0273 9.77574 30.1649C10.5831 30.2684 10.9749 30.265 11.8045 30.147C13.6029 29.8912 13.8726 29.9881 15.2492 31.386C16.8115 32.9726 18.2528 33.8798 20.2755 34.5496C23.4538 35.6022 28.3515 35.9078 32.2192 35.295C35.9851 34.6982 38.9111 33.778 40.9666 32.5441C44.8503 30.2127 46.6285 26.7477 46.0311 22.6757C45.7096 20.4842 44.9548 18.7824 43.4084 16.7624C42.6304 15.7461 41.2173 14.3676 40.2746 13.7054C38.6752 12.5818 36.4545 11.7276 33.8492 11.2337C32.7954 11.034 32.2264 10.9965 30.286 10.9982C27.6533 11.0005 26.3323 11.1625 24.2336 11.7402C20.5988 12.7408 17.9 14.2204 15.5465 16.5028L14.6085 17.4123L14.1849 17.2855C13.7083 17.1427 13.2085 16.6214 13.2085 16.2669C13.2085 16.1376 13.111 15.8636 12.9917 15.6578C12.4023 14.641 12.3703 14.3165 12.8477 14.1967C13.0239 14.1526 13.0909 14.075 13.0558 13.9561C13.0272 13.8596 12.9741 13.6553 12.9376 13.5021C12.8832 13.273 12.7836 13.2061 12.3788 13.1263C11.815 13.0151 11.5188 12.6991 11.4225 12.106C11.3436 11.6202 11.5768 11.3651 12.0999 11.3651C12.4021 11.3651 12.4664 11.3304 12.4145 11.1953C12.3786 11.1019 12.3493 10.8882 12.3493 10.7205C12.3493 10.4669 12.2857 10.3946 11.9715 10.2909C11.5226 10.1428 11.2752 9.73005 11.2752 9.12906C11.2752 8.65034 11.4049 8.50112 11.866 8.44905C12.154 8.41662 12.1917 8.36938 12.2219 8.00393C12.2501 7.66135 12.1935 7.52651 11.8728 7.17158C11.5765 6.84371 11.49 6.65658 11.49 6.34288C11.49 5.84141 11.7431 5.46039 12.076 5.46039C12.3008 5.46039 12.3463 5.3774 12.5014 4.68204C12.6697 3.92785 13.0478 3.01283 13.3388 2.65586C13.8399 2.04102 14.8939 1.84186 15.5456 2.23909C16.1767 2.62365 16.3398 3.02356 16.2902 4.06473C16.2662 4.56663 16.1633 5.48455 16.0614 6.10454C15.8101 7.63398 15.8746 9.92276 16.2115 11.4309L16.454 12.5168L17.5969 11.8153C20.2406 10.1928 23.1813 9.11553 26.2583 8.64261C28.0766 8.36316 28.3019 8.34566 30.0449 8.34781C32.4955 8.35081 34.9698 8.74278 36.525 9.37448L37.1926 9.64567L37.1223 8.43874C37.0275 6.81086 36.747 5.48176 36.0797 3.4968C35.4761 1.70133 35.4565 1.44067 35.8736 0.757219ZM36.7326 40.9574L30.2346 38.2048C27.7263 38.4881 26.0493 38.635 23.8447 38.0658C23.3969 37.9501 22.8823 37.8173 22.2574 37.6698L22.1232 44.9296C22.1232 44.9296 21.8056 45.5199 25.0791 45.3589V40.1027L34.5137 43.9097L34.5412 58.0216L25.0787 53.4218L25.0791 53.4218L25.0565 53.411L25.0562 53.4252C23.9928 53.5828 23.1385 53.5805 22.1232 53.2607V55.4874L24.9801 57.0075L34.5412 61.6576L36.5786 62.7512L38.8637 61.6576L54.3447 53.7187V35.295L46.1066 31.017L43.8213 33.3349L48.4366 35.295L36.7326 40.9574ZM6.68376 35.4135C7.09598 34.2325 7.61819 33.0625 7.87768 32.7386C7.97746 32.6141 8.00495 32.6334 8.03073 32.846C8.10591 33.4686 8.49096 33.8031 9.13217 33.8031C9.42077 33.8031 9.87896 33.4903 9.87896 33.2932C9.87896 33.2488 10.1871 33.2126 10.5637 33.2126C11.1957 33.2126 11.2613 33.2351 11.4157 33.504C11.755 34.0949 12.5804 34.0139 12.9354 33.3549L13.1456 32.9646L14.0631 33.8984C15.3654 35.2237 16.6386 36.0244 18.6862 36.8058L19.7065 37.1952L19.722 39.9241L19.723 40.1026V40.1027C19.7327 41.7725 19.7364 42.4259 19.6176 42.449C19.5412 42.4638 19.4141 42.2183 19.2054 41.8149L19.1706 41.7477C18.5349 40.5205 17.5213 40.1318 16.8419 40.8546C16.6407 41.0688 16.5918 41.2398 16.5918 41.7306C16.5918 42.2559 16.6582 42.4563 17.0716 43.1784C18.0273 44.8482 19.7403 46.3629 21.5015 47.0958C21.7127 47.1837 21.9178 47.2608 22.1232 47.328C23.1699 47.6704 24.2237 47.7546 26.1284 47.6886L26.4194 47.6785L28.0841 47.6208L28.6374 47.9015C29.5947 48.3869 29.8577 48.9607 29.4384 49.6481C29.1671 50.0928 28.4713 50.483 27.3192 50.8369C26.444 51.1057 26.2202 51.1296 24.5935 51.1287C22.4785 51.1275 21.7124 50.9584 20.0147 50.1179C18.1406 49.19 16.8129 48.1394 15.4432 46.5002C14.3759 45.223 13.8023 44.9906 13.2718 45.6208C12.9728 45.9761 12.9314 46.2968 13.1046 46.9198C13.2416 47.4131 13.927 48.4473 14.6163 49.2013C14.7978 49.3998 15.5523 49.9439 16.427 50.5747C17.897 51.6347 19.7065 52.8742 19.7065 52.8742V56.8465C19.7065 56.8465 21.3199 57.7053 22.1232 58.0216L34.316 63.9321L33.6082 64.1079C29.0891 65.4831 24.2057 65.3601 19.4334 63.751C14.0219 61.9265 9.50143 57.7762 7.25075 52.5659C5.78918 49.1823 5.28148 46.4516 5.40091 42.6168C5.49135 39.7131 5.8126 37.9095 6.68376 35.4135Z" fill="#15002E"/>
</svg>
